<svg xmlns="http://www.w3.org/2000/svg" width="24" height="24" fill="none"><path fill="#0266C1" d="M22.6 15.5a11.7 11.7 0 0 0-.5-6.8l-.6-1.4c.3-.2.5-.5.5-.8V3c0-.4-.3-.8-.8-.8h-9.5c-.2 0-.4.2-.4.4a12.9 12.9 0 0 1-.5 5.5c-.2.5-.5.9-.8 1.2-.5.5-1 .9-1.6 1.2l-3 1.2h-.2C1.6 13.2 1 15.5 1 16.7v3c0 .2 0 .3.2.4.9.6 1.8 1 2.8 1.3.2 0 .4 0 .5-.3v-.2h.6v.4c0 .2.1.4.3.4l1 .2c.1 0 .2 0 .3-.2l.1-.3v-.5h.6v.6c0 .2.2.4.4.4h1c.2 0 .3-.2.3-.4v-.6h.6v.4c0 .2.2.4.4.4l2.2-.5c2.7-1.7 4.5-.4 4.5-.3h.7c.3 0 .4-.1.4-.3v-.7h.6v.7c0 .2.2.4.4.4h1.2c.2 0 .4-.2.4-.4v-.7h.6v.7c0 .2.2.4.4.4h1c.1 0 .3-.2.3-.4V16c0-.2-.1-.4-.3-.5ZM13.4 3h7.8v3.5h-7.8V3Zm-4.9 8.3 1 1c-.2.1-.2.3-.2.4 0 .4.3.8.7.8.5 0 .8-.3.8-.8 0-.4-.3-.7-.7-.8l-.8-1a6 6 0 0 0 1-.7l1 1.2c-.1.4 0 .9.5 1 .3.2.8 0 .9-.5.1-.4 0-.8-.5-1H12a12 12 0 0 0-1.1-1.3l.5-.8L13 9.9c0 .5.3.8.8.8.4 0 .7-.3.7-.8 0-.4-.3-.8-.7-.8l-.4.1A17 17 0 0 0 11.6 8c.4-1.2.6-2.8.5-5h.5v3.5c0 .5.4.8.8.8h7.3l.4 1.1H21c-2.4 0-4.3 2.1-4.3 4.7 0 1.4.7 2.7 1.8 3.6-3.2.9-7.9 2-11.9 1.7.8-3.2-.1-5.1-.7-6l2.6-1Zm-3.3 1.4c.4.5 1.5 2.3.7 5.6a9.2 9.2 0 0 1-4-1.3v-.3c0-1 .2-2.9 3.3-4ZM22 20v-.7c0-.2-.2-.4-.4-.4h-1.4c-.2 0-.4.2-.4.4v.7h-.4v-.7c0-.2-.2-.4-.4-.4h-1.4c-.2 0-.4.2-.4.4v.7c-.5-.3-2.4-1.4-5.1.3l-1.5.4v-.3c0-.2-.2-.4-.4-.4H8.9c-.3 0-.4.2-.4.4v.6h-.2v-.6c0-.2-.2-.4-.4-.4H6.5c-.2 0-.3.2-.3.4v.5H6v-.5c0-.2-.2-.4-.4-.4H4.2c-.2 0-.3.1-.4.3a10 10 0 0 1-2-1V18c1.7 1 4 1.3 6.3 1.3 6.1 0 13.2-2.5 14-2.8V20H22Zm-.2-4.4-2.3.8a3.9 3.9 0 0 1-1.6-5 3.5 3.5 0 0 1 3.5-2.1c.6 1.7 1.1 4.3.4 6.3Z"/><path fill="#0266C1" d="M14.9 3.5c-.6 0-1.1.6-1.1 1.2 0 .7.5 1.3 1.1 1.3.6 0 1.1-.6 1.1-1.3 0-.6-.5-1.2-1.1-1.2Zm0 1.6c-.2 0-.4-.1-.4-.4 0-.2.2-.3.4-.3s.4.1.4.3c0 .3-.2.4-.4.4Z"/></svg>