<svg xmlns="http://www.w3.org/2000/svg" width="24" height="24" fill="none"><g clip-path="url(#clip0_11694_694)"><path stroke="#0266C1" stroke-linecap="round" d="M19.8 9.6h-5.9a3.3 3.3 0 0 0-3.3 3.3c0 1.8 1.5 3.3 3.3 3.3h2.6c1.8 0 3.3 1.5 3.3 3.4 0 1.8-1.5 3.3-3.3 3.3H4.2m3.1-5.5c0-1.8-1.4-3.2-3-3.2A3.1 3.1 0 0 0 1 17.4v.1c0 .7.2 1.4.6 2l2.5 3.4s0 0 0 0l2.5-3.5c.4-.5.6-1.2.6-1.9v-.1ZM4.8 16h0a1.4 1.4 0 0 1 .5 2.1c-.3.3-.7.5-1 .5h-.1a1.4 1.4 0 0 1-.6-2.6h0c.4-.2.8-.2 1.2 0ZM23 4.3C23 2.5 21.5 1 19.8 1a3.1 3.1 0 0 0-3.1 3.2c0 .6.2 1.3.6 1.9l2.5 3.3s0 0 0 0l2.5-3.3c.4-.6.6-1.3.6-2Zm-2.5-1.4h0a1.3 1.3 0 0 1 .5 2h0c-.3.4-.7.6-1 .6h-.1c-.4 0-.8-.2-1-.5h-.1a1.3 1.3 0 0 1 .5-2v-.1c.4-.2.8-.2 1.2 0Z"/></g></svg>