<svg xmlns="http://www.w3.org/2000/svg" width="142" height="42" fill="none"><path fill="#2D383F" d="m15.7 27.2 3.8-3.8 4.3 3.8H31L19.5 16 7.9 27.2h7.8Z"/><path fill="#2D383F" d="M26.5 9.2 21 14.8l3.6 3.7 2-1.9 10.2 10a16.5 16.5 0 0 1-15.5 10.6C12.2 37.2 4.8 30 4.8 21S12.2 4.8 21.4 4.8c8 0 14.9 5.7 16.2 13.3l5 5.2.2-2.3A21.4 21.4 0 0 0 21.4 0 21.4 21.4 0 0 0 0 21a21.4 21.4 0 0 0 21.4 21 21.4 21.4 0 0 0 20.4-14.7l.4-1.7L38 21 26.5 9.2ZM60.4 13.5h3.2L61.8 22h5.3l-.5 2.4h-8.4l2.2-11ZM70.1 13.5h3.1l-2.2 11H68l2.2-11ZM78.1 15.9l-.5 2.4h5l-.5 2.4h-5l-.7 3.7h-3.1l2.2-11h8.7l-.5 2.5h-5.6ZM88.3 15.9l-.4 1.8h5l-.5 2.3h-5l-.4 2H93l-.5 2.4h-9l2.3-11h8.7l-.5 2.5h-5.6ZM98.2 16h-3.4l.5-2.5h10l-.6 2.4h-3.4l-1.7 8.5h-3.1l1.7-8.5ZM110 24.6c-1 0-2-.2-2.9-.6-.8-.4-1.5-1-2-1.7-.4-.7-.6-1.5-.6-2.5 0-1.2.3-2.3.9-3.3.6-1 1.4-1.8 2.5-2.4 1-.5 2.2-.8 3.6-.8 1 0 2 .2 2.9.6A4.5 4.5 0 0 1 117 18c0 1.2-.3 2.4-.9 3.3a6 6 0 0 1-2.5 2.4c-1 .5-2.2.8-3.5.8Zm.3-2.5a3.3 3.3 0 0 0 3-2c.4-.5.5-1.1.5-1.8 0-.8-.2-1.4-.7-1.8-.4-.4-1-.7-1.9-.7a3.3 3.3 0 0 0-3 2c-.4.5-.5 1.1-.5 1.8 0 .8.2 1.4.7 1.8.5.5 1.1.7 2 .7ZM122.9 24.6a6 6 0 0 1-2.5-.4c-.7-.4-1.2-.8-1.6-1.4-.4-.6-.6-1.3-.6-2.1 0-.3 0-.7.2-1.2l1.2-6h3.2l-1.3 6v.9c0 1.1.5 1.7 1.8 1.7a2 2 0 0 0 1.5-.6c.4-.4.7-1 1-2l1.1-6h3.1l-1.2 6.2c-.7 3.3-2.7 5-5.9 5ZM141.4 17c0 1-.3 1.8-.8 2.6-.5.7-1.3 1.2-2.3 1.5l2 3.3h-3.4l-1.6-2.9h-1.6l-.6 3H130l2.2-11h4.7c1.5 0 2.6.3 3.3 1a3 3 0 0 1 1.2 2.5Zm-3.2.3c0-.5-.1-.8-.4-1-.3-.3-.8-.4-1.3-.4h-1.7l-.6 3.2h1.8c.7 0 1.3-.1 1.7-.5.3-.3.5-.7.5-1.3ZM60.3 34.7c-.4 0-.7 0-1-.2a2 2 0 0 1-.8-.7 1.9 1.9 0 0 1 0-2l.7-.7 1-.3c.5 0 .8.1 1.1.3a1.9 1.9 0 0 1 1 1.7c0 .3 0 .7-.3 1-.1.3-.4.5-.7.7l-1 .2Zm0-.4c.3 0 .6 0 .8-.2a1.5 1.5 0 0 0 .8-1.3c0-.3 0-.6-.2-.8-.1-.3-.3-.5-.6-.6l-.8-.2c-.3 0-.6 0-.9.2a1.5 1.5 0 0 0-.7 1.4c0 .3 0 .5.2.8l.5.5c.3.2.6.2.9.2ZM64.7 31.8c.3 0 .5 0 .7.2l.5.5c.2.2.2.5.2.7 0 .3 0 .6-.2.8 0 .2-.3.4-.5.5l-.7.2-.7-.1-.4-.5v1.6h-.4v-3.9h.4v.6c0-.2.2-.3.4-.4.2-.2.4-.2.7-.2Zm0 2.6c.2 0 .3 0 .5-.2.2 0 .3-.2.4-.4l.1-.6-.1-.5a1 1 0 0 0-.4-.4l-.5-.2c-.2 0-.4 0-.6.2a1 1 0 0 0-.4.4l-.1.5.1.6.4.4.6.2ZM69 32.2h-1.6v2.5H67v-2.9h2v.4ZM70.6 31.8c.4 0 .7 0 .9.3.2.2.3.4.3.8v1.8h-.4v-.5c0 .2-.2.3-.4.4l-.6.1c-.3 0-.6 0-.8-.2a.7.7 0 0 1-.3-.6c0-.3.1-.5.3-.6.2-.2.5-.2.9-.2h.9v-.2c0-.3 0-.4-.2-.6l-.6-.2a1.5 1.5 0 0 0-1 .4l-.2-.3.5-.3.7-.1Zm-.1 2.6.5-.1.4-.5v-.4h-1c-.4 0-.7.1-.7.5 0 .1 0 .3.2.4l.6.1ZM72.8 31.8h.4v1.3H75v-1.3h.4v2.9H75v-1.3h-1.8v1.3h-.4v-2.9ZM76.5 31.8h.4v2.3l2-2.3h.3v2.9h-.4v-2.3L77 34.7h-.4v-2.9ZM81.7 33.2l.5.2.2.5-.2.4-.5.3a2.2 2.2 0 0 1-1.3 0l-.5-.2.1-.3.5.2h1.2c.2-.2.2-.3.2-.5 0-.1 0-.2-.2-.3a1 1 0 0 0-.5-.2h-.5v-.2h.4c.3 0 .4 0 .6-.2l.2-.3-.3-.4h-.5a2 2 0 0 0-1 .2V32c.3-.2.6-.3 1-.3h.6l.4.4.2.4c0 .1 0 .2-.2.3l-.4.3ZM84.2 31.8c.4 0 .7 0 1 .3l.2.8v1.8H85v-.5c0 .2-.2.3-.3.4l-.7.1c-.3 0-.5 0-.7-.2a.7.7 0 0 1-.3-.6c0-.3 0-.5.2-.6.2-.2.5-.2.9-.2h1v-.2c0-.3-.1-.4-.3-.6l-.6-.2a1.5 1.5 0 0 0-1 .4l-.1-.3.5-.3.6-.1Zm-.1 2.6.6-.1.3-.5v-.4h-.9c-.5 0-.7.1-.7.5 0 .1 0 .3.2.4l.5.1ZM89.5 34.3v1H89v-.6h-2.6v-2.9h.4v2.5h1.7v-2.5h.4v2.5h.5ZM90.2 31.8h.4v2.3l2-2.3h.3v2.9h-.4v-2.3l-2 2.3h-.3v-2.9ZM96.3 31.8v2.9h-.4v-1h-1l-.7 1h-.4l.7-1a1 1 0 0 1-.5-.3.9.9 0 0 1-.2-.6c0-.3.1-.6.3-.7.3-.2.6-.3 1-.3h1.2Zm-2 1c0 .4.2.6.7.6h1v-1.2h-1c-.5 0-.8.2-.8.6ZM101.4 31.8v2.9h-.3v-2.5h-1.9v2.5h-.4v-2.9h2.6ZM103.8 34.7c-.3 0-.6 0-.8-.2a1.4 1.4 0 0 1-.7-1.3c0-.2 0-.5.2-.7l.5-.5.8-.2c.2 0 .5 0 .7.2l.5.5c.2.2.2.5.2.7 0 .3 0 .6-.2.8 0 .2-.3.4-.5.5l-.7.2Zm0-.3c.2 0 .3 0 .5-.2.2 0 .3-.2.4-.4l.1-.6-.1-.5a1 1 0 0 0-.4-.4 1 1 0 0 0-.5-.2c-.2 0-.4 0-.6.2a1 1 0 0 0-.4.4l-.1.5.1.6.4.4.6.2ZM107.8 34.7l-1-1.2-.9 1.2h-.4l1.1-1.5-1-1.4h.4l.9 1.1.8-1h.5l-1.1 1.3 1.1 1.5h-.4ZM110 34.7c-.3 0-.6 0-.8-.2a1.4 1.4 0 0 1-.7-1.3c0-.2 0-.5.2-.7l.5-.5.8-.2c.3 0 .5 0 .7.2.3.1.4.3.6.5l.1.7-.1.8c-.2.2-.3.4-.6.5l-.7.2Zm0-.3c.2 0 .4 0 .5-.2.2 0 .3-.2.4-.4l.2-.6c0-.2 0-.4-.2-.5a1 1 0 0 0-.4-.4 1 1 0 0 0-.5-.2c-.2 0-.4 0-.6.2a1 1 0 0 0-.4.4l-.1.5.1.6.4.4.6.2ZM115.1 34.3v1h-.4v-.6h-2.6v.7h-.3v-1h.1c.2 0 .4-.2.4-.5l.2-1.1v-1h2.2v2.5h.4Zm-2.3-1.5v1c-.1.3-.2.4-.4.5h1.9v-2.1h-1.4v.6ZM117 34.7c-.2 0-.5 0-.7-.2a1.4 1.4 0 0 1-.7-1.3c0-.2 0-.5.2-.7l.5-.5.8-.2c.2 0 .5 0 .7.2l.5.5c.2.2.2.5.2.7 0 .3 0 .6-.2.8 0 .2-.3.4-.5.5l-.7.2Zm0-.3c.3 0 .5 0 .6-.2.2 0 .3-.2.4-.4l.1-.6v-.5a1 1 0 0 0-.5-.4 1 1 0 0 0-.5-.2c-.2 0-.4 0-.6.2a1 1 0 0 0-.4.4l-.1.5.1.6.4.4.6.2ZM121.2 33.2c.4 0 .6.3.6.7 0 .2 0 .4-.3.6l-.8.2h-1.3v-2.9h1.3c.3 0 .6 0 .7.2.2.1.3.3.3.6l-.1.4-.4.2Zm-1.4-.1h.8l.5-.1c.2-.1.2-.2.2-.4s0-.3-.2-.4a1 1 0 0 0-.5 0h-.8v.9Zm.9 1.3.5-.1c.2-.1.2-.3.2-.4l-.1-.4-.6-.1h-1v1h1ZM126 33.2c.4 0 .6.3.6.7 0 .2 0 .4-.3.6l-.8.2h-1.3v-2.9h1.3c.3 0 .6 0 .7.2.2.1.3.3.3.6l-.1.4-.4.2Zm-1.4-.1h.8l.6-.1.1-.4-.1-.4a1 1 0 0 0-.6 0h-.8v.9Zm.9 1.3.6-.1.1-.4-.1-.4-.6-.1h-1v1h1ZM131 32.2h-1.6v2.5h-.4v-2.9h2v.4ZM132.7 34.7c-.3 0-.6 0-.8-.2a1.4 1.4 0 0 1-.7-1.3c0-.2 0-.5.2-.7l.5-.5.8-.2c.3 0 .5 0 .7.2.3.1.4.3.6.5l.2.7-.2.8c-.2.2-.3.4-.6.5l-.7.2Zm0-.3c.2 0 .4 0 .5-.2.2 0 .3-.2.4-.4l.2-.6c0-.2 0-.4-.2-.5a1 1 0 0 0-.4-.4 1 1 0 0 0-.5-.2c-.2 0-.4 0-.6.2a1 1 0 0 0-.4.4l-.1.5.1.6.4.4.6.2ZM136.5 31.8c.3 0 .5 0 .7.2.3.1.4.3.5.5.2.2.2.5.2.7 0 .3 0 .6-.2.8 0 .2-.2.4-.5.5l-.7.2-.7-.1-.4-.5v1.6h-.4v-3.9h.4v.6c0-.2.2-.3.4-.4.2-.2.4-.2.7-.2Zm0 2.6c.2 0 .3 0 .5-.2.2 0 .3-.2.4-.4l.1-.6-.1-.5a1 1 0 0 0-.4-.4l-.5-.2c-.2 0-.4 0-.6.2a1 1 0 0 0-.4.4l-.1.5.1.6.4.4.6.2ZM140 32.8c.4 0 .6.1.8.3.2.1.3.3.3.6s0 .6-.3.7c-.2.2-.5.3-.9.3h-1.1v-2.9h.4v1h.8Zm1.6-1h.4v2.9h-.4v-2.9Zm-1.7 2.6c.3 0 .5 0 .6-.2.2 0 .2-.2.2-.5 0-.2 0-.3-.2-.4a1 1 0 0 0-.6-.2h-.7v1.3h.7Z"/></svg>