<svg xmlns="http://www.w3.org/2000/svg" width="14" height="15"><path d="M8.4 0c-.5 0-1 .2-1.2.6l-.5 1.2c-.2.8-.2 1.6-.2 2.3A7 7 0 0 0 3 5.2a2 2 0 0 0-1.3-.5c-.5 0-1 .2-1.3.7-.7.9-.6 2.4.2 3.3l-.1.8c0 3 2.8 5.5 6.4 5.5 3.6 0 6.4-2.4 6.4-5.5v-.8c.7-.9.8-2.4.1-3.3-.3-.5-.8-.7-1.3-.7a2 2 0 0 0-1.3.5c-1-.6-2-1-3.3-1.1l.1-1.9.3-.7.4-.2c.3 0 .4.1.6.4l.4.6c.2.2.5.3.9.3V1.3H10L9.8.9C9.6.5 9.1 0 8.4 0Zm3.5.1c-.8 0-1.5.9-1.5 1.9 0 1 .7 1.8 1.5 1.8S13.4 3 13.4 2 12.7 0 12 0Zm0 .7c.5 0 1 .5 1 1.2 0 .6-.5 1.2-1 1.2s-1-.6-1-1.2c0-.7.5-1.2 1-1.2ZM7 5c3 0 5.6 2 5.6 4.4C12.6 12 10 14 7 14c-3 0-5.6-2-5.6-4.5C1.4 7.1 4 5.1 7 5.1Zm-5.2.6.5.1c-.6.5-1 1.1-1.3 1.8C.8 7 1 6.4 1.1 6c.2-.3.4-.4.7-.4Zm10.4 0c.3 0 .5.1.7.4.2.3.3 1 0 1.5-.2-.7-.6-1.3-1.2-1.8h.5ZM4.8 7.4c-.5 0-1 .5-1 1.1 0 .7.5 1.2 1 1.2.6 0 1-.5 1-1.2 0-.6-.4-1.1-1-1.1Zm4.4 0c-.6 0-1 .5-1 1.1 0 .7.4 1.2 1 1.2.5 0 1-.5 1-1.2 0-.6-.5-1.1-1-1.1Zm-5 4A3 3 0 0 0 7 13.1a3 3 0 0 0 2.7-1.7c-.6.5-1.6.8-2.7.8s-2-.3-2.7-.8Z"/></svg>