<svg xmlns="http://www.w3.org/2000/svg" width="20" height="20" fill="none"><path fill="#fff" d="M13.5 6.5A5 5 0 0 0 10 5a5 5 0 0 0-5 5 5 5 0 0 0 8.5 3.5A5 5 0 0 0 15 10a5 5 0 0 0-1.5-3.5Zm-1 6c-.6.8-1.5 1.2-2.5 1.2s-2-.4-2.6-1.1c-.7-.7-1-1.6-1-2.6s.3-2 1-2.6c.7-.7 1.6-1 2.6-1s2 .3 2.6 1c.7.7 1 1.6 1 2.6s-.3 2-1 2.6ZM19.3 9.3h-2c-.4 0-.7.3-.7.7 0 .4.3.7.7.7h2c.4 0 .7-.3.7-.7 0-.4-.3-.7-.7-.7ZM10 16.6c-.4 0-.7.3-.7.7v2c0 .4.3.7.7.7.4 0 .7-.3.7-.7v-2c0-.4-.3-.7-.7-.7ZM17 16.1l-1.4-1.4c-.2-.3-.7-.3-1 0-.2.2-.2.6 0 1l1.5 1.4c.3.2.7.2 1 0 .2-.3.2-.7 0-1ZM10 0c-.4 0-.7.3-.7.7v2c0 .4.3.7.7.7.4 0 .7-.3.7-.7v-2c0-.4-.3-.7-.7-.7ZM17 3a.7.7 0 0 0-.9 0l-1.4 1.4c-.3.3-.3.7 0 1 .2.2.7.2 1 0L17 3.8c.3-.3.3-.7 0-1ZM2.7 9.3h-2c-.4 0-.7.3-.7.7 0 .4.3.7.7.7h2c.4 0 .7-.3.7-.7 0-.4-.3-.7-.7-.7ZM5.3 14.7c-.2-.3-.7-.3-1 0L3 16c-.3.3-.3.7 0 1 .3.2.7.2 1 0l1.4-1.5c.3-.3.3-.7 0-1ZM5.3 4.4 4 2.9a.7.7 0 0 0-1 0c-.3.3-.3.7 0 1l1.5 1.4c.2.3.7.3 1 0 .2-.2.2-.6 0-1Z"/></svg>