<svg xmlns="http://www.w3.org/2000/svg" width="25" height="25" fill="none"><g clip-path="url(#clip0_809_690)"><path fill="#fff" d="M0 0h25v25H0z"/><path fill="#2D383F" d="M24.2 22.3V6.7a.5.5 0 0 0-.6-.5l-2.1.7.4-1.8a5 5 0 0 0-10.2 0c0 .6.1 1.2.3 1.7L8.6 5.6H8.3L1 8.4c-.1 0-.3.2-.3.4v15.6a.5.5 0 0 0 .7.4l7-2.7 8 2.9h.2l7.1-2.3c.2 0 .4-.2.4-.4ZM16.8.9c2.3 0 4.1 1.9 4.1 4.2 0 1.8-2.7 6.8-4.1 9.3A33 33 0 0 1 12.6 5c0-2.3 1.9-4.2 4.2-4.2Zm6.5 21L17 24v-3.5a.5.5 0 0 0-.9 0v3.5l-7.2-2.6v-3a.5.5 0 0 0-1 0v3l-6.1 2.4v-7.1l2.2-1a.5.5 0 1 0-.3-.8l-2 .8V9L8 6.7v1.4a.5.5 0 0 0 .9 0V6.7L12.5 8c1 2.6 2.4 5 3.9 7.5a.5.5 0 0 0 .8 0c1.4-2.4 2.7-4.9 3.9-7.5l2.1-.7V15l-2.3.6a.5.5 0 0 0 .1 1h.1l2.2-.6v6Z"/><path fill="#2D383F" d="M16.8 2.4a2.7 2.7 0 1 0 0 5.4 2.7 2.7 0 0 0 0-5.4Zm0 4.5C15.8 6.9 15 6 15 5a1.8 1.8 0 1 1 1.8 1.8ZM10.7 14l-2.2-1H8l-1.9.8a.5.5 0 0 0 .4.8l1.7-.7 2 1h.2a.5.5 0 0 0 .2-1ZM18.3 16.6c-.1-.2-.3-.3-.6-.3l-1.1.2-2-.8a.5.5 0 0 0-.3.8l2 1h.3l1.4-.3c.2 0 .3-.3.3-.6Z"/></g></svg>