<svg xmlns="http://www.w3.org/2000/svg" width="25" height="21" fill="none"><path fill="#2D383F" d="M24.6 14.3A11.6 11.6 0 0 0 24 7l-.6-1.5c.3-.2.6-.5.6-.9V1c0-.5-.4-.9-1-.9H12.3a.4.4 0 0 0-.5.5 12.8 12.8 0 0 1-.6 5.9c-.2.4-.5.9-.9 1.2-.5.6-1.1 1-1.8 1.3-1.1.5-2.3 1-3.5 1.3h-.2C.5 11.7 0 14.3 0 15.5v3.2c0 .2 0 .3.2.4 1 .6 2.1 1 3.3 1.4A.4.4 0 0 0 4 20v-.1h.7v.4c0 .2.1.4.4.4l1.1.2a.4.4 0 0 0 .5-.5V20h.6v.6c0 .3.2.5.5.5l1.1-.1c.3 0 .4-.2.4-.4v-.6h.7v.4a.4.4 0 0 0 .5.4 15 15 0 0 0 2.4-.6c3.2-1.8 5.2-.3 5.2-.2H19c.2 0 .4-.2.4-.4v-.7h.6v.7c0 .2.2.4.5.4h1.4c.3 0 .5-.2.5-.4v-.7h.6v.7c0 .2.2.4.5.4h1c.3 0 .5-.2.5-.4v-4.8c0-.2-.1-.4-.4-.4ZM14.1.9h9v3.7h-9V1ZM8.5 9.8l1 1v.4a.8.8 0 1 0 .8-.8c-.2-.4-.6-.7-1-1l1.2-.8 1.2 1.3a.8.8 0 1 0 .8-.6h-.1L11 7.9l.6-.8c.7.3 1.3.7 2 1.2a.9.9 0 1 0 .4-.8l-2-1.2c.4-1.3.6-3 .5-5.3h.6v3.6c0 .5.4 1 1 1h8.2l.6 1.1h-.2a4.9 4.9 0 0 0-2.9 8.8c-3.6 1-9 2-13.5 1.8.8-3.4-.2-5.4-.9-6.3l3-1.2Zm-3.8 1.4c.4.6 1.7 2.5.8 6-1.6-.2-3.2-.6-4.6-1.4v-.3c0-1 .3-3 3.8-4.3Zm19.2 7.9v-.8c0-.2-.2-.4-.4-.4h-1.6c-.2 0-.4.2-.4.4v.8h-.6v-.8c0-.2-.2-.4-.4-.4H19c-.3 0-.5.2-.5.4v.7c-.6-.3-2.8-1.4-6 .3l-1.6.5v-.4c0-.2-.2-.4-.5-.4H9c-.2 0-.4.2-.4.4v.7h-.3v-.7c0-.2-.2-.4-.4-.4H6.2c-.2 0-.4.2-.4.4v.6h-.2v-.6c0-.2-.2-.4-.5-.4H3.6c-.2 0-.4.2-.5.4a12 12 0 0 1-2.2-1v-1.6c2 1 4.4 1.4 7 1.4 7.2 0 15.3-2.7 16.2-3V19H24Zm-.2-4.7c-.4 0-1.3.4-2.6.8a4 4 0 0 1 2.2-7.6c.7 1.9 1.2 4.6.4 6.8Z"/></svg>