<svg xmlns="http://www.w3.org/2000/svg" width="25" height="25" fill="none"><g clip-path="url(#clip0_809_714)"><path fill="#fff" d="M0 0h25v25H0z"/><path fill="#2D383F" d="m23.4 24.2-4-9.4-3.8-8.9a.5.5 0 0 0-1 0l-3.3 8-1.4 3L7 10.2a.5.5 0 0 0-.9 0l-2.7 6.3L0 24.2a.5.5 0 0 0 .5.7H23a.5.5 0 0 0 .4-.7ZM15.1 7.3l3.1 7.2h-1l-2-2.2a.5.5 0 0 0-.8 0l-.7 1.2h-1.3l2.7-6.2Zm-8.5 4.2L9 17.2H7.7c-.2 0-.3 0-.4.2l-.5.8-1.2-1.8-.4-.2h-.7l2-4.7ZM1.2 24l3-6.7h.7l1.5 2.1.4.2c.2 0 .3 0 .4-.2l.7-1.1h1.5l2.5 5.7H1.2Zm11.8 0-2.5-5.8 1.5-3.6h2l.3-.2.6-.9 1.7 2h2l3.6 8.5H13ZM7.6 2a2.3 2.3 0 0 0-4.3.9V3a2.3 2.3 0 0 0 .9 4.3h3.3a2.7 2.7 0 1 0 .1-5.3Zm0 4.5H4.2A1.3 1.3 0 1 1 4 4a.5.5 0 0 0 .3-.6v-.4a1.3 1.3 0 0 1 2.5-.2c0 .2.3.4.5.4h.3a1.7 1.7 0 0 1 0 3.4ZM23.7 2.6v-.2a2.3 2.3 0 0 0-4.3-.8 2.7 2.7 0 0 0 0 5.3h3.4a2.3 2.3 0 0 0 .9-4.3Zm.4 2.3c-.2.6-.7 1-1.3 1h-3.3a1.7 1.7 0 0 1 0-3.4h.2c.2 0 .4-.1.5-.4a1.3 1.3 0 1 1 2.5.7.5.5 0 0 0 .4.6c.7.2 1.1.8 1 1.5Z"/></g></svg>