<svg xmlns="http://www.w3.org/2000/svg" width="25" height="25" fill="none"><g clip-path="url(#clip0_809_725)"><path fill="#fff" d="M0 0h25v25H0z"/><path fill="#2D383F" d="m24.6 18-5-5.5h2.5a.5.5 0 0 0 .4-.8l-4-5.2h2a.5.5 0 0 0 .4-.8L16 .2a.5.5 0 0 0-.8 0l-4.8 5.4a.5.5 0 0 0 .4.9h2L11.7 8 8.4 4.4a.5.5 0 0 0-.7 0L3.6 9a.5.5 0 0 0 .3.8h1.6l-3.3 4.3a.5.5 0 0 0 .4.8h1.9L.4 19.7a.5.5 0 0 0 .4.8h5.5V24c0 .6.5 1 1 1h1.5c.6 0 1-.4 1-1v-3.5H14V24c0 .6.4 1 1 1h1.5c.5 0 1-.4 1-1v-5h6.7a.5.5 0 0 0 .4-1ZM8.8 24H7.3v-3.5h1.5V24Zm5.2-4.5H1.9l4-4.7a.5.5 0 0 0-.3-.8h-2L7 9.7a.5.5 0 0 0-.4-.8H5l3-3.4 3 3.4-2 2.8a.5.5 0 0 0 .3.8h2.4L6.8 18a.5.5 0 0 0 .4.8H14v.6Zm2.4 4.5H15v-5h1.4v5Zm0-6H8.4l4.9-5.7a.5.5 0 0 0-.4-.8h-2.4l4-5.2a.5.5 0 0 0-.5-.8H12l3.7-4.2 3.7 4.2h-2a.5.5 0 0 0-.3.8l4 5.2h-2.5a.5.5 0 0 0-.4.8l5 5.6h-6.7Z"/></g></svg>