<svg xmlns="http://www.w3.org/2000/svg" width="14" height="8"><path d="M14 7.2h-.1l-1.4-1.7-.6-.6c-.2-.2-.2-.4-.1-.6l.6-1 .5-.6c.8-1 1.2-1.8 1-2.1 0-.1 0-.2-.2-.2H11l-.1.1-.1.2A12 12 0 0 1 9 3.6l-.2.2-.2.1h-.2l-.1-.2-.1-.3a3.1 3.1 0 0 1 0-.6 10.9 10.9 0 0 0 0-1 104.4 104.4 0 0 1 0-1.4L8 .2 7.7.1l-1-.1C5.8 0 5.3 0 5 .2a1 1 0 0 0-.3.2v.2c.3 0 .5.1.6.3l.1.4.1.5a5.7 5.7 0 0 1-.2 1.9v.1L5 4h-.2l-.3-.4c-.1 0-.3-.2-.4-.5l-.4-.7-.1-.2A18.2 18.2 0 0 1 2.8.5L2.5.4H.5L0 .5 0 .7v.2a24.1 24.1 0 0 0 3.4 5.5l.2.2.5.4.7.5a4 4 0 0 0 2 .5h.9l.4-.2v-.4l.1-.5.2-.4a1 1 0 0 1 .2-.3h.1c.1-.1.2 0 .4 0l.5.5a13 13 0 0 0 1 1h.1c.1.2.2.2.4.3h2.3l.4-.1.2-.2v-.5Z"/></svg>