<svg width="33" height="32" viewBox="0 0 33 32" fill="none" xmlns="http://www.w3.org/2000/svg">
<g clip-path="url(#clip0_208_1591)">
<rect width="32.7619" height="32" fill="white"/>
<path d="M11.9861 20.7577L14.8571 17.7974L18.1228 20.7577H23.721L14.8212 12.1938L5.99316 20.7577H11.9861Z" fill="#2D383F"/>
<path d="M20.204 7.01322L15.9694 11.2423L18.7685 14.0616L20.204 12.652L28.0631 20.3348C26.2688 25.022 21.6754 28.3701 16.2565 28.3701C9.29455 28.3701 3.6604 22.837 3.6604 16C3.69629 9.16297 9.33044 3.62996 16.2924 3.62996C22.4648 3.62996 27.6325 8.03528 28.6732 13.7797L32.4771 17.7269C32.5489 17.163 32.5848 16.5639 32.5848 16C32.5848 11.7357 30.8981 7.7181 27.8119 4.68722C24.7257 1.65639 20.6347 0 16.2924 0C11.9143 0 7.85912 1.65639 4.77288 4.68722C1.68666 7.7181 0 11.7004 0 16C0 20.2996 1.68666 24.2819 4.77288 27.3128C7.85912 30.3436 11.9502 32 16.2924 32C20.6347 32 24.7257 30.3436 27.8119 27.3128C29.7139 25.445 31.0776 23.2247 31.8312 20.7929C31.9747 20.3701 32.0824 19.9119 32.19 19.489L28.8885 16.0705L20.204 7.01322Z" fill="#2D383F"/>
</g>
<defs>
<clipPath id="clip0_208_1591">
<rect width="32.7619" height="32" fill="white"/>
</clipPath>
</defs>
</svg>
